<svg width="133" height="22" viewBox="0 0 133 22" fill="none" xmlns="http://www.w3.org/2000/svg">
<path d="M-0.00193751 16.8V4.76837e-05H6.91006C7.96606 4.76837e-05 8.89406 0.216048 9.69406 0.648048C10.5101 1.06405 11.1421 1.65605 11.5901 2.42405C12.0541 3.19205 12.2861 4.10405 12.2861 5.16005V5.49605C12.2861 6.53605 12.0461 7.44805 11.5661 8.23205C11.1021 9.00005 10.4621 9.60005 9.64606 10.032C8.84606 10.448 7.93406 10.656 6.91006 10.656H3.16606V16.8H-0.00193751ZM3.16606 7.77605H6.59806C7.35006 7.77605 7.95806 7.56805 8.42206 7.15205C8.88606 6.73605 9.11806 6.16805 9.11806 5.44805V5.20805C9.11806 4.48805 8.88606 3.92005 8.42206 3.50405C7.95806 3.08805 7.35006 2.88005 6.59806 2.88005H3.16606V7.77605ZM14.6019 16.8V4.89605H17.5779V6.24005H18.0099C18.1859 5.76005 18.4739 5.40805 18.8739 5.18405C19.2899 4.96005 19.7699 4.84805 20.3139 4.84805H21.7539V7.53605H20.2659C19.4979 7.53605 18.8659 7.74405 18.3699 8.16005C17.8739 8.56005 17.6259 9.18405 17.6259 10.032V16.8H14.6019ZM29.3596 17.136C28.1756 17.136 27.1116 16.896 26.1676 16.416C25.2236 15.936 24.4796 15.24 23.9356 14.328C23.3916 13.416 23.1196 12.32 23.1196 11.04V10.656C23.1196 9.37605 23.3916 8.28005 23.9356 7.36805C24.4796 6.45605 25.2236 5.76005 26.1676 5.28005C27.1116 4.80005 28.1756 4.56005 29.3596 4.56005C30.5436 4.56005 31.6076 4.80005 32.5516 5.28005C33.4956 5.76005 34.2396 6.45605 34.7836 7.36805C35.3276 8.28005 35.5996 9.37605 35.5996 10.656V11.04C35.5996 12.32 35.3276 13.416 34.7836 14.328C34.2396 15.24 33.4956 15.936 32.5516 16.416C31.6076 16.896 30.5436 17.136 29.3596 17.136ZM29.3596 14.448C30.2876 14.448 31.0556 14.152 31.6636 13.56C32.2716 12.952 32.5756 12.088 32.5756 10.968V10.728C32.5756 9.60805 32.2716 8.75205 31.6636 8.16005C31.0716 7.55205 30.3036 7.24805 29.3596 7.24805C28.4316 7.24805 27.6636 7.55205 27.0556 8.16005C26.4476 8.75205 26.1436 9.60805 26.1436 10.728V10.968C26.1436 12.088 26.4476 12.952 27.0556 13.56C27.6636 14.152 28.4316 14.448 29.3596 14.448ZM38.3909 16.8V4.89605H41.3669V6.19205H41.7989C42.0069 5.79205 42.3509 5.44805 42.8309 5.16005C43.3109 4.85605 43.9429 4.70405 44.7269 4.70405C45.5749 4.70405 46.2549 4.87205 46.7669 5.20805C47.2789 5.52805 47.6709 5.95205 47.9429 6.48005H48.3749C48.6469 5.96805 49.0309 5.54405 49.5269 5.20805C50.0229 4.87205 50.7269 4.70405 51.6389 4.70405C52.3749 4.70405 53.0389 4.86405 53.6309 5.18405C54.2389 5.48805 54.7189 5.96005 55.0709 6.60005C55.4389 7.22405 55.6229 8.01605 55.6229 8.97605V16.8H52.5989V9.19205C52.5989 8.53605 52.4309 8.04805 52.0949 7.72805C51.7589 7.39205 51.2869 7.22405 50.6789 7.22405C49.9909 7.22405 49.4549 7.44805 49.0709 7.89605C48.7029 8.32805 48.5189 8.95205 48.5189 9.76805V16.8H45.4949V9.19205C45.4949 8.53605 45.3269 8.04805 44.9909 7.72805C44.6549 7.39205 44.1829 7.22405 43.5749 7.22405C42.8869 7.22405 42.3509 7.44805 41.9669 7.89605C41.5989 8.32805 41.4149 8.95205 41.4149 9.76805V16.8H38.3909ZM58.8753 21.6V4.89605H61.8513V6.33605H62.2833C62.5553 5.87205 62.9793 5.46405 63.5553 5.11205C64.1313 4.74405 64.9553 4.56005 66.0273 4.56005C66.9873 4.56005 67.8753 4.80005 68.6913 5.28005C69.5073 5.74405 70.1633 6.43205 70.6593 7.34405C71.1553 8.25605 71.4033 9.36005 71.4033 10.656V11.04C71.4033 12.336 71.1553 13.44 70.6593 14.352C70.1633 15.264 69.5073 15.96 68.6913 16.44C67.8753 16.904 66.9873 17.136 66.0273 17.136C65.3073 17.136 64.6993 17.048 64.2033 16.872C63.7233 16.712 63.3313 16.504 63.0273 16.248C62.7393 15.976 62.5073 15.704 62.3313 15.432H61.8993V21.6H58.8753ZM65.1153 14.496C66.0593 14.496 66.8353 14.2 67.4433 13.608C68.0673 13 68.3793 12.12 68.3793 10.968V10.728C68.3793 9.57605 68.0673 8.70405 67.4433 8.11205C66.8193 7.50405 66.0433 7.20005 65.1153 7.20005C64.1873 7.20005 63.4113 7.50405 62.7873 8.11205C62.1633 8.70405 61.8513 9.57605 61.8513 10.728V10.968C61.8513 12.12 62.1633 13 62.7873 13.608C63.4113 14.2 64.1873 14.496 65.1153 14.496ZM78.3416 16.8C77.5576 16.8 76.9176 16.56 76.4216 16.08C75.9416 15.584 75.7016 14.928 75.7016 14.112V7.39205H72.7256V4.89605H75.7016V1.20005H78.7256V4.89605H81.9896V7.39205H78.7256V13.584C78.7256 14.064 78.9496 14.304 79.3976 14.304H81.7016V16.8H78.3416ZM84.7269 16.8V4.76837e-05H87.7509V16.8H84.7269ZM96.7659 17.136C95.5819 17.136 94.5179 16.896 93.5739 16.416C92.6299 15.936 91.8859 15.24 91.3419 14.328C90.7979 13.416 90.5259 12.32 90.5259 11.04V10.656C90.5259 9.37605 90.7979 8.28005 91.3419 7.36805C91.8859 6.45605 92.6299 5.76005 93.5739 5.28005C94.5179 4.80005 95.5819 4.56005 96.7659 4.56005C97.9499 4.56005 99.0139 4.80005 99.9579 5.28005C100.902 5.76005 101.646 6.45605 102.19 7.36805C102.734 8.28005 103.006 9.37605 103.006 10.656V11.04C103.006 12.32 102.734 13.416 102.19 14.328C101.646 15.24 100.902 15.936 99.9579 16.416C99.0139 16.896 97.9499 17.136 96.7659 17.136ZM96.7659 14.448C97.6939 14.448 98.4619 14.152 99.0699 13.56C99.6779 12.952 99.9819 12.088 99.9819 10.968V10.728C99.9819 9.60805 99.6779 8.75205 99.0699 8.16005C98.4779 7.55205 97.7099 7.24805 96.7659 7.24805C95.8379 7.24805 95.0699 7.55205 94.4619 8.16005C93.8539 8.75205 93.5499 9.60805 93.5499 10.728V10.968C93.5499 12.088 93.8539 12.952 94.4619 13.56C95.0699 14.152 95.8379 14.448 96.7659 14.448ZM111.461 17.136C110.277 17.136 109.213 16.896 108.269 16.416C107.325 15.936 106.581 15.24 106.037 14.328C105.493 13.416 105.221 12.32 105.221 11.04V10.656C105.221 9.37605 105.493 8.28005 106.037 7.36805C106.581 6.45605 107.325 5.76005 108.269 5.28005C109.213 4.80005 110.277 4.56005 111.461 4.56005C112.645 4.56005 113.709 4.80005 114.653 5.28005C115.597 5.76005 116.341 6.45605 116.885 7.36805C117.429 8.28005 117.701 9.37605 117.701 10.656V11.04C117.701 12.32 117.429 13.416 116.885 14.328C116.341 15.24 115.597 15.936 114.653 16.416C113.709 16.896 112.645 17.136 111.461 17.136ZM111.461 14.448C112.389 14.448 113.157 14.152 113.765 13.56C114.373 12.952 114.677 12.088 114.677 10.968V10.728C114.677 9.60805 114.373 8.75205 113.765 8.16005C113.173 7.55205 112.405 7.24805 111.461 7.24805C110.533 7.24805 109.765 7.55205 109.157 8.16005C108.549 8.75205 108.245 9.60805 108.245 10.728V10.968C108.245 12.088 108.549 12.952 109.157 13.56C109.765 14.152 110.533 14.448 111.461 14.448ZM120.493 16.8V4.76837e-05H123.517V9.28805H123.949L127.885 4.89605H131.821L126.325 10.656L132.013 16.8H128.125L123.949 12.072H123.517V16.8H120.493Z" fill="#00E6A8"/>
</svg>
