<svg width="15" height="15" viewBox="0 0 15 15" fill="none" xmlns="http://www.w3.org/2000/svg">
<path d="M6.6158 0.436066C6.83097 -0.145414 7.65341 -0.145413 7.86857 0.436067C8.68994 2.65576 9.10062 3.76561 9.91024 4.57524C10.7199 5.38486 11.8297 5.79554 14.0494 6.6169C14.6309 6.83207 14.6309 7.65451 14.0494 7.86967C11.8297 8.69104 10.7199 9.10172 9.91024 9.91134C9.10062 10.721 8.68994 11.8308 7.86857 14.0505C7.65341 14.632 6.83097 14.632 6.6158 14.0505C5.79444 11.8308 5.38376 10.721 4.57414 9.91134C3.76451 9.10172 2.65466 8.69103 0.434967 7.86967C-0.146513 7.6545 -0.146514 6.83207 0.434966 6.6169C2.65466 5.79554 3.76451 5.38486 4.57414 4.57524C5.38376 3.76561 5.79444 2.65576 6.6158 0.436066Z" fill="url(#paint0_linear_545_1825)"/>
<defs>
<linearGradient id="paint0_linear_545_1825" x1="2.70885" y1="-1.25671" x2="12.9089" y2="16.8766" gradientUnits="userSpaceOnUse">
<stop stop-color="#EBFFFA"/>
<stop offset="1" stop-color="#86FFDF"/>
</linearGradient>
</defs>
</svg>
