<svg width="89" height="89" viewBox="0 0 89 89" fill="none" xmlns="http://www.w3.org/2000/svg">
<path d="M15.7832 71.5251C19.9806 68.5055 24.4343 66.1175 29.1443 64.3612C33.8544 62.6041 38.9538 61.7256 44.4424 61.7256C49.931 61.7256 55.0304 62.6041 59.7405 64.3612C64.4505 66.1175 68.9042 68.5055 73.1016 71.5251C76.3623 68.1508 78.9848 64.1658 80.9691 59.5701C82.9542 54.9736 83.9468 49.931 83.9468 44.4424C83.9468 33.4964 80.0992 24.1758 72.4041 16.4807C64.709 8.78561 55.3884 4.93804 44.4424 4.93804C33.4964 4.93804 24.1758 8.78561 16.4807 16.4807C8.78561 24.1758 4.93804 33.4964 4.93804 44.4424C4.93804 49.931 5.93059 54.9736 7.91569 59.5701C9.89996 64.1658 12.5225 68.1508 15.7832 71.5251ZM44.4424 46.9114C40.2829 46.9114 36.774 45.4823 33.9157 42.624C31.0574 39.7657 29.6283 36.2568 29.6283 32.0973C29.6283 27.9378 31.0574 24.4289 33.9157 21.5706C36.774 18.7123 40.2829 17.2832 44.4424 17.2832C48.6019 17.2832 52.1108 18.7123 54.9691 21.5706C57.8274 24.4289 59.2565 27.9378 59.2565 32.0973C59.2565 36.2568 57.8274 39.7657 54.9691 42.624C52.1108 45.4823 48.6019 46.9114 44.4424 46.9114ZM44.4424 88.8848C38.2443 88.8848 32.4421 87.731 27.0358 85.4232C21.6295 83.1155 16.9256 79.9613 12.9241 75.9607C8.92346 71.9592 5.76928 67.2553 3.46157 61.849C1.15386 56.4427 0 50.6405 0 44.4424C0 38.2443 1.15386 32.4421 3.46157 27.0358C5.76928 21.6295 8.92346 16.9256 12.9241 12.9241C16.9256 8.92346 21.6295 5.76928 27.0358 3.46157C32.4421 1.15385 38.2443 0 44.4424 0C50.6405 0 56.4427 1.15385 61.849 3.46157C67.2553 5.76928 71.9592 8.92346 75.9607 12.9241C79.9613 16.9256 83.1155 21.6295 85.4232 27.0358C87.731 32.4421 88.8848 38.2443 88.8848 44.4424C88.8848 50.6405 87.731 56.4427 85.4232 61.849C83.1155 67.2553 79.9613 71.9592 75.9607 75.9607C71.9592 79.9613 67.2553 83.1155 61.849 85.4232C56.4427 87.731 50.6405 88.8848 44.4424 88.8848Z" fill="#C9C9C9"/>
</svg>
